PathFileType  4	(X/Y/Z) C:\Users\antoi\Documents\MyRepositories\mobilecap\ResultsAnalysis
DataRate	CameraRate	NumFrames	NumMarkers	Units	OrigDataRate	OrigDataStartFrame	OrigNumFrames
100.0	100.0	4	51	mm	100.0	166	221
Frame#	Time	r_knee			r_shank_antsup			r_ankle			r_calc			r_5meta			r_toe			L_knee			L_shank_antsup			L_ankle			L_calc			L_5meta			L_toe			r_sh2			r_sh3			r_sh4			L_sh2			L_sh3			r_thigh1			r_thigh2			r_thigh3			r_thigh4			r_thigh5			L_thigh1			L_thigh2			L_thigh3			L_thigh4			r.ASIS			r.PSIS			L.ASIS			L.PSIS			C7			R_Shoulder			L_Shoulder			R_Sternum			L_Sternum			R_humerus			R_elbow_med			R_elbow_lat			R_forearm			R_wrist_radius			R_wrist_ulna			L_humerus			L_elbow_med			L_elbow_lat			L_forearm			L_wrist_radius			L_wrist_ulna			R_HJC			L_HJC			R_HJC_reg			L_HJC_reg			
		X1	Y1	Z1	X2	Y2	Z2	X3	Y3	Z3	X4	Y4	Z4	X5	Y5	Z5	X6	Y6	Z6	X7	Y7	Z7	X8	Y8	Z8	X9	Y9	Z9	X10	Y10	Z10	X11	Y11	Z11	X12	Y12	Z12	X13	Y13	Z13	X14	Y14	Z14	X15	Y15	Z15	X16	Y16	Z16	X17	Y17	Z17	X18	Y18	Z18	X19	Y19	Z19	X20	Y20	Z20	X21	Y21	Z21	X22	Y22	Z22	X23	Y23	Z23	X24	Y24	Z24	X25	Y25	Z25	X26	Y26	Z26	X27	Y27	Z27	X28	Y28	Z28	X29	Y29	Z29	X30	Y30	Z30	X31	Y31	Z31	X32	Y32	Z32	X33	Y33	Z33	X34	Y34	Z34	X35	Y35	Z35	X36	Y36	Z36	X37	Y37	Z37	X38	Y38	Z38	X39	Y39	Z39	X40	Y40	Z40	X41	Y41	Z41	X42	Y42	Z42	X43	Y43	Z43	X44	Y44	Z44	X45	Y45	Z45	X46	Y46	Z46	X47	Y47	Z47	X48	Y48	Z48	X49	Y49	Z49	X50	Y50	Z50	X51	Y51	Z51	

166	1.65000000	-194.24095	735.76422	-422.41860	-203.53732	664.46272	-404.68805	-227.78199	360.43908	-467.26979	-278.45199	386.55780	-524.39080	-185.18250	246.76164	-450.36734	-123.02217	243.54330	-486.20213	-160.64783	763.87249	-743.25009	-138.31938	697.07062	-749.15925	-225.46839	393.65673	-734.72879	-296.78004	400.89024	-684.53302	-174.22576	289.68982	-750.92984	-116.39954	290.85092	-700.64274	-211.65041	553.58218	-409.59312	-265.78023	670.24094	-445.66313	-278.48876	555.78418	-458.17346	-224.68752	719.09745	-762.23026	-240.36776	597.87901	-767.07912	-156.46039	1053.44554	-408.38472	-136.28522	943.29488	-396.54322	-189.99843	911.64302	-370.18577	-264.87681	1036.68104	-372.83653	-244.25899	921.54121	-382.98426	-137.45445	1057.85508	-736.91424	-112.35122	921.20842	-750.33801	-251.82211	1038.64417	-753.77021	-220.03172	900.66214	-755.20485	-176.09056	1200.60320	-419.24093	-340.33169	1228.00221	-513.28114	-144.10574	1220.44608	-670.70285	-332.72136	1235.75514	-615.30481	-246.57929	1685.83525	-510.76915	-194.37112	1633.11788	-362.75855	-167.52972	1653.68037	-662.76963	-124.49112	1602.66861	-488.23467	-120.40595	1607.93883	-530.84230	-190.12406	1441.05690	-214.34636	-227.90774	1322.61682	-210.41139	-196.49986	1373.79926	-160.17370	-84.19391	1332.46458	-188.91645	12.82719	1280.33506	-221.78003	3.99268	1244.80804	-196.95214	-122.93659	1567.30499	-754.18157	-204.39286	1396.35761	-880.05891	-153.89556	1436.78338	-916.97782	-90.74714	1431.00061	-818.86071	-61.00391	1410.53260	-704.57071	-39.62642	1383.23878	-719.36649	-236.15261	1129.02732	-459.85727	-208.47725	1147.88799	-657.33183	-229.35637	1123.83388	-465.00697	-216.90896	1136.51829	-631.87606	
167	1.66000000	-188.22326	749.44963	-420.30954	-195.90355	677.59723	-401.14899	-227.07131	373.70053	-463.48464	-278.93953	399.23582	-519.81026	-184.19303	260.12461	-446.62257	-122.90503	256.61552	-483.80204	-156.24058	776.20736	-739.88423	-132.96920	709.58800	-745.45390	-215.17503	404.82644	-734.80802	-288.67059	410.83580	-687.20569	-162.08669	301.50324	-748.91223	-106.16946	303.59579	-696.58627	-205.99426	566.74596	-405.49785	-260.62065	684.20173	-437.78864	-275.69292	569.69939	-448.94410	-218.97277	730.47222	-761.94826	-232.52374	609.12214	-767.51379	-155.80551	1066.34510	-407.89000	-134.31302	956.31669	-396.17831	-187.72990	923.87522	-370.11005	-263.80862	1047.69645	-372.02951	-242.27114	933.13141	-382.98226	-137.63168	1069.83002	-734.74100	-110.61065	933.67373	-746.27522	-251.55410	1049.22496	-753.18789	-217.64273	911.56157	-753.31700	-177.15234	1211.35119	-417.03022	-341.86016	1237.72934	-513.41979	-147.02137	1232.89721	-671.50237	-334.85040	1245.81438	-614.97505	-243.18165	1698.59601	-509.48908	-190.46481	1640.52938	-359.88073	-161.87059	1661.41808	-662.01503	-123.73489	1611.82808	-487.53038	-118.99696	1617.72461	-528.67916	-193.09597	1441.49049	-220.14340	-230.88899	1323.80386	-225.22963	-202.01003	1371.18418	-168.28802	-89.38400	1318.92975	-187.18886	5.08183	1260.23465	-214.50566	-8.97764	1224.19192	-192.67074	-123.12225	1568.05782	-749.34405	-215.61920	1398.01516	-868.10266	-163.94871	1434.61955	-907.15748	-97.41850	1423.78600	-811.28937	-62.51392	1399.78967	-699.37992	-44.16483	1370.71049	-714.88054	-236.90189	1139.56340	-459.82190	-209.84990	1159.42586	-657.28039	-230.22872	1133.60754	-463.34672	-218.58565	1147.04581	-632.13529	
168	1.67000000	-184.58387	761.90025	-418.71179	-189.64343	689.65837	-398.41666	-225.18161	385.53863	-458.92327	-278.39100	410.13154	-514.60617	-181.73072	272.27535	-441.79473	-121.17570	268.65068	-480.29605	-154.00352	787.31647	-736.10881	-129.33950	721.42777	-741.75734	-203.89504	414.77302	-735.85546	-279.13458	418.29930	-689.92516	-147.98790	313.38023	-749.79695	-93.75718	315.81557	-695.68346	-200.84995	578.10396	-401.71186	-256.37165	696.87927	-431.16242	-273.22966	582.28248	-440.50922	-215.36316	740.20688	-760.20235	-225.49507	618.60932	-767.33446	-155.39925	1077.42375	-407.04926	-133.76764	967.28721	-396.42643	-186.86589	934.88202	-369.56609	-263.07335	1058.34061	-371.19774	-241.81380	944.02573	-382.07374	-137.35389	1080.51881	-732.83912	-109.86832	944.39741	-741.72122	-250.98271	1059.19170	-752.20928	-216.20289	921.58033	-750.43833	-176.87778	1221.08938	-416.00904	-342.66807	1246.58923	-513.16913	-148.98789	1243.87975	-671.36754	-336.55180	1254.69383	-614.44750	-240.40061	1709.84213	-507.74055	-186.42292	1647.12899	-358.02468	-157.56274	1668.82947	-659.90857	-123.63506	1620.31999	-486.16254	-117.57472	1626.76870	-526.29289	-194.52039	1442.40064	-225.10545	-231.94916	1325.80963	-238.29056	-206.51326	1369.35320	-176.08925	-95.63618	1306.98112	-186.62359	-4.71487	1241.77297	-210.72104	-22.81445	1206.78637	-189.97513	-124.35177	1570.07478	-744.58484	-225.58725	1400.14393	-855.36056	-172.86309	1432.82564	-896.06326	-103.24239	1417.15901	-803.42791	-62.63816	1389.34417	-694.54481	-48.00159	1358.42951	-710.14157	-236.72115	1149.06550	-459.63039	-210.62770	1169.68521	-657.14182	-229.94513	1143.30034	-462.00277	-219.72007	1156.84869	-631.35890	
169	1.68000000	-183.26326	772.41952	-417.15625	-184.87865	700.56614	-396.26526	-222.09632	395.75242	-454.00092	-277.15832	418.91892	-508.88338	-177.38892	283.19766	-436.13753	-117.58691	279.68640	-475.90887	-153.24383	797.13354	-733.05615	-126.92662	732.10897	-738.26218	-192.50483	423.61348	-737.02300	-268.89248	423.56246	-692.38980	-132.69351	325.54055	-752.57587	-79.72827	328.05075	-697.23850	-196.15468	587.67291	-398.26112	-253.10687	707.65560	-426.16218	-270.52185	592.99587	-433.65355	-213.26273	748.35310	-757.72551	-219.52313	626.55602	-766.53140	-155.24099	1086.70162	-406.13714	-134.36316	976.39968	-396.59697	-187.29416	944.52025	-368.68784	-262.83702	1068.83526	-370.41121	-242.26524	954.12219	-380.79328	-136.74049	1089.86673	-731.33806	-109.67301	953.44277	-737.17515	-250.17886	1068.38909	-750.98704	-215.55405	930.66382	-747.35002	-175.86059	1229.91552	-415.92618	-343.00490	1254.74916	-512.13240	-150.13197	1252.71930	-670.26112	-337.73686	1262.47479	-613.69093	-238.10120	1719.62014	-505.57346	-182.42625	1653.06399	-357.10972	-155.13220	1676.18478	-657.32842	-123.16171	1628.47927	-484.50622	-116.30778	1635.09085	-524.30429	-194.14086	1443.54076	-230.14292	-231.03294	1328.34247	-248.80189	-209.73950	1368.39018	-183.84968	-101.99279	1297.90570	-188.61714	-15.48126	1225.54310	-209.92847	-36.69904	1192.80867	-188.60831	-126.11831	1573.24430	-740.06667	-234.02344	1402.20874	-842.13164	-180.79104	1431.21215	-884.81949	-107.89751	1411.04410	-795.82537	-61.62028	1379.05155	-690.35241	-51.05193	1346.82948	-706.12176	-236.16371	1157.63227	-458.87409	-211.17478	1178.20928	-656.53475	-229.21368	1152.73084	-460.88514	-220.45831	1165.56287	-629.55831	
